<?xml version="1.0" encoding="UTF-8"?>
<svg width="174px" height="332px" viewBox="0 0 174 332" version="1.1" xmlns="http://www.w3.org/2000/svg" xmlns:xlink="http://www.w3.org/1999/xlink">
    <!-- Generator: Sketch 47.1 (45422) - http://www.bohemiancoding.com/sketch -->
    <title>Group 5</title>
    <desc>Created with Sketch.</desc>
    <defs>
        <rect id="path-1" x="0" y="0" width="160" height="318" rx="11"></rect>
        <filter x="-7.2%" y="-3.0%" width="114.4%" height="107.2%" filterUnits="objectBoundingBox" id="filter-2">
            <feOffset dx="0" dy="2" in="SourceAlpha" result="shadowOffsetOuter1"></feOffset>
            <feGaussianBlur stdDeviation="3.5" in="shadowOffsetOuter1" result="shadowBlurOuter1"></feGaussianBlur>
            <feComposite in="shadowBlurOuter1" in2="SourceAlpha" operator="out" result="shadowBlurOuter1"></feComposite>
            <feColorMatrix values="0 0 0 0 0.728302332   0 0 0 0 0.778022818   0 0 0 0 0.862165179  0 0 0 1 0" type="matrix" in="shadowBlurOuter1"></feColorMatrix>
        </filter>
        <rect id="path-3" x="12" y="37" width="136" height="242"></rect>
        <rect id="path-4" x="13" y="53" width="134" height="24"></rect>
        <filter x="-0.4%" y="-2.1%" width="100.7%" height="104.2%" filterUnits="objectBoundingBox" id="filter-5">
            <feOffset dx="0" dy="-1" in="SourceAlpha" result="shadowOffsetInner1"></feOffset>
            <feComposite in="shadowOffsetInner1" in2="SourceAlpha" operator="arithmetic" k2="-1" k3="1" result="shadowInnerInner1"></feComposite>
            <feColorMatrix values="0 0 0 0 0.8   0 0 0 0 0.8   0 0 0 0 0.8  0 0 0 0.5 0" type="matrix" in="shadowInnerInner1"></feColorMatrix>
        </filter>
        <rect id="path-6" x="37" y="260" width="84" height="15" rx="4"></rect>
    </defs>
    <g id="营销短信" stroke="none" stroke-width="1" fill="none" fill-rule="evenodd">
        <g id="营销短信-2" transform="translate(-963.000000, -156.000000)">
            <g id="Group-5" transform="translate(970.000000, 161.000000)">
                <g id="Rectangle-2-Copy">
                    <use fill="black" fill-opacity="1" filter="url(#filter-2)" xlink:href="#path-1"></use>
                    <use fill="#FFFFFF" fill-rule="evenodd" xlink:href="#path-1"></use>
                    <rect stroke="#99A9BF" stroke-width="1" x="0.5" y="0.5" width="159" height="317" rx="11"></rect>
                </g>
                <g id="Rectangle-2">
                    <use fill="#FFFFFF" fill-rule="evenodd" xlink:href="#path-3"></use>
                    <rect stroke="#99A9BF" stroke-width="1" x="12.5" y="37.5" width="135" height="241"></rect>
                </g>
                <rect id="Rectangle-4" fill="#EFF2F6" x="13" y="38" width="134" height="15"></rect>
                <g id="Rectangle-4-Copy-2">
                    <use fill="#EFF2F6" fill-rule="evenodd" xlink:href="#path-4"></use>
                    <use fill="black" fill-opacity="1" filter="url(#filter-5)" xlink:href="#path-4"></use>
                </g>
                <text id="详细信息" font-family="PingFangSC-Regular, PingFang SC" font-size="8" font-weight="normal" fill="#40B6FF">
                    <tspan x="108" y="70">详细信息</tspan>
                </text>
                <text id="&lt;-信息" font-family="PingFangSC-Regular, PingFang SC" font-size="10" font-weight="normal" fill="#40B6FF">
                    <tspan x="18.31" y="70">&lt; </tspan>
                    <tspan x="27.69" y="70" font-size="8">信息</tspan>
                </text>
                <g id="Battery" opacity="0.489809783" transform="translate(127.000000, 42.000000)">
                    <rect id="Border" stroke="#525F75" opacity="0.745414402" x="0.5" y="0.694444444" width="11.32" height="5.61111111" rx="2"></rect>
                    <path d="M12.88,2.33333333 L12.88,4.66666667 C13.3306494,4.46904703 13.6237013,4.00932775 13.6237013,3.5 C13.6237013,2.99067225 13.3306494,2.53095297 12.88,2.33333333" id="Cap" fill="#525F75" fill-rule="nonzero"></path>
                    <rect id="Capacity" fill="#525F75" fill-rule="nonzero" x="1.12" y="1.36111111" width="10.08" height="4.27777778" rx="1.33333337"></rect>
                </g>
                <path d="M51.0002188,43.2922296 C52.1609513,43.2922847 53.2772986,43.7754181 54.1185286,44.6417734 C54.1818754,44.7086592 54.2831284,44.7078155 54.3455179,44.6398819 L54.9510556,43.9778773 C54.9826463,43.9434216 55.0002593,43.8967493 54.9999971,43.8481882 C54.999735,43.7996271 54.9816193,43.7531812 54.9496588,43.719128 C52.7416996,41.4269573 49.2583887,41.4269573 47.0504296,43.719128 C47.0184458,43.7531559 47.0002986,43.7995878 47.0000037,43.8481489 C46.9997087,43.89671 47.0172904,43.9433965 47.0488581,43.9778773 L47.6545705,44.6398819 C47.7169201,44.707918 47.8182513,44.7087624 47.8815598,44.6417734 C48.7228969,43.7753612 49.8393725,43.2922265 51.0002188,43.2922296 L51.0002188,43.2922296 Z M51.0002188,45.4460144 C51.6379659,45.4459721 52.2529544,45.7027537 52.725687,46.1664646 C52.7896264,46.2322758 52.8903475,46.230849 52.9526764,46.1632492 L53.5575157,45.5012445 C53.589368,45.4665205 53.6070414,45.4194143 53.606582,45.3704649 C53.6061225,45.3215155 53.5875686,45.2748083 53.5550712,45.240793 C52.1155054,43.7902185 49.8861545,43.7902185 48.4465887,45.240793 C48.414071,45.2748079 48.3955182,45.3215385 48.3950915,45.3705037 C48.3946648,45.419469 48.4123998,45.4665707 48.4443188,45.5012445 L49.0489835,46.1632492 C49.1113123,46.230849 49.2120335,46.2322758 49.2759728,46.1664646 C49.748393,45.7030601 50.3628932,45.4463005 51.0002188,45.4460144 L51.0002188,45.4460144 Z M52.1625788,47.0259358 C52.1949265,46.991546 52.2127406,46.9442209 52.2118152,46.8951341 C52.2108897,46.8460473 52.1913068,46.7995496 52.1576898,46.7666191 C51.4895179,46.1544253 50.5109197,46.1544253 49.8427478,46.7666191 C49.8091075,46.7995231 49.7894925,46.8460062 49.788534,46.8950932 C49.7875755,46.9441803 49.8053584,46.9915203 49.8376841,47.0259358 L50.884105,48.1696907 C50.9147748,48.2033048 50.9565892,48.2222222 51.0002188,48.2222222 C51.0438484,48.2222222 51.0856628,48.2033048 51.1163326,48.1696907 L52.1625788,47.0259358 Z" id="Wifi" fill="#525F75" fill-rule="nonzero" opacity="0.489809783"></path>
                <path d="M109.588235,46.75 L110.176471,46.75 C110.501344,46.75 110.764706,47.0018398 110.764706,47.3125 L110.764706,48.4375 C110.764706,48.7481602 110.501344,49 110.176471,49 L109.588235,49 C109.263362,49 109,48.7481602 109,48.4375 L109,47.3125 C109,47.0018398 109.263362,46.75 109.588235,46.75 L109.588235,46.75 Z M112.333333,45.625 L112.921569,45.625 C113.246442,45.625 113.509804,45.8768398 113.509804,46.1875 L113.509804,48.4375 C113.509804,48.7481602 113.246442,49 112.921569,49 L112.333333,49 C112.00846,49 111.745098,48.7481602 111.745098,48.4375 L111.745098,46.1875 C111.745098,45.8768398 112.00846,45.625 112.333333,45.625 Z M115.078431,44.3125 L115.666667,44.3125 C115.99154,44.3125 116.254902,44.5643398 116.254902,44.875 L116.254902,48.4375 C116.254902,48.7481602 115.99154,49 115.666667,49 L115.078431,49 C114.753558,49 114.490196,48.7481602 114.490196,48.4375 L114.490196,44.875 C114.490196,44.5643398 114.753558,44.3125 115.078431,44.3125 Z M117.823529,43 L118.411765,43 C118.736638,43 119,43.2518398 119,43.5625 L119,48.4375 C119,48.7481602 118.736638,49 118.411765,49 L117.823529,49 C117.498656,49 117.235294,48.7481602 117.235294,48.4375 L117.235294,43.5625 C117.235294,43.2518398 117.498656,43 117.823529,43 L117.823529,43 Z" id="Cellular-Connection" fill="#525F75" fill-rule="nonzero" opacity="0.489809783"></path>
                <text id="中国移动" opacity="0.919950181" font-family="PingFangSC-Regular, PingFang SC" font-size="6" font-weight="normal" fill="#525F75">
                    <tspan x="16" y="47">中国移动</tspan>
                </text>
                <rect id="Rectangle-4-Copy" fill="#EFF2F6" x="13" y="254" width="134" height="24"></rect>
                <g id="Rectangle-5">
                    <use fill="#FFFFFF" fill-rule="evenodd" xlink:href="#path-6"></use>
                    <rect stroke="#BAC6DC" stroke-width="1" x="37.5" y="260.5" width="83" height="14" rx="4"></rect>
                </g>
                <text id="发送" font-family="PingFangSC-Regular, PingFang SC" font-size="8" font-weight="normal" fill="#525F75">
                    <tspan x="126" y="271">发送</tspan>
                </text>
                <g id="Group" transform="translate(55.000000, 20.000000)" stroke="#99A9BF">
                    <rect id="Rectangle-3" x="13.5" y="0.5" width="37" height="3" rx="1.5"></rect>
                    <circle id="Oval-2" cx="2.5" cy="2.5" r="2.5"></circle>
                </g>
                <circle id="Oval" stroke="#99A9BF" cx="78" cy="299" r="12"></circle>
                <g id="camera_fill" opacity="0.301800272" transform="translate(19.000000, 263.000000)" fill-rule="nonzero" fill="#525F75">
                    <path d="M6,3.60233918 C7.43843478,3.60233918 8.60869565,4.75663158 8.60869565,6.1754386 C8.60869565,7.59424561 7.43843478,8.74853801 6,8.74853801 C4.56156522,8.74853801 3.39130435,7.59424561 3.39130435,6.1754386 C3.39130435,4.75663158 4.56156522,3.60233918 6,3.60233918 M11.2173913,1.90203509 C11.1325427,1.87902282 11.0450364,1.86691489 10.9570435,1.8660117 L9.24782609,1.8660117 L8.88104348,1.02923977 L8.772,0.780163743 C8.57634783,0.335532164 8.05878261,0 7.56730435,0 L4.43217391,0 C3.94069565,0 3.42313043,0.335532164 3.228,0.780678363 L3.11895652,1.02923977 L2.75217391,1.86549708 L1.04295652,1.86549708 C0.952695652,1.86549708 0.866086957,1.88093567 0.782608696,1.90203509 C0.321769238,2.02033697 8.56906155e-05,2.43070401 0,2.90039766 L0,9.96612865 C0,10.4467836 0.333391304,10.8476725 0.782608696,10.963462 C0.866086957,10.9845614 0.952695652,11 1.04295652,11 L10.9570435,11 C11.0473043,11 11.133913,10.9845614 11.2173913,10.9639766 C11.6778297,10.8454045 11.9993108,10.4355071 12,9.96612865 L12,2.90039766 C12,2.41922807 11.666087,2.01730994 11.2173913,1.90203509" id="Shape"></path>
                </g>
            </g>
        </g>
    </g>
</svg>